{"title":"MOUSE HUNT-1997-IN H.264 BY WINKER","uid":5112794,"size":841726445,"categoryP":"video","categoryS":"movies","magnet":"?xt=urn:btih:682b5e76b99267f0e7afb68ff3b19d081df6c3bc&amp;dn=MOUSE+HUNT-1997-IN+H.264+BY+WINKER&amp;tr=udp%3A%2F%2Ftracker.openbittorrent.com%3A80&amp;tr=udp%3A%2F%2Fopen.demonii.com%3A1337&amp;tr=udp%3A%2F%2Ftracker.coppersurfer.tk%3A6969&amp;tr=udp%3A%2F%2Fexodus.desync.com%3A6969","seeders":2,"leechers":1,"uploader":"alanwatson","files":-1,"time":1254904438,"description":"Down on their luck brothers Lars and Ernie Smuntz (Lane and Evans) don't think much of the crumbling old mansion they inherit, until they discover that their dilapidated estate is actually worth millions. But before they can cash in, they've got to rid the house of its single, stubborn occupant: a tiny and tenacious mouse. What might seem like child's play becomes an epic battle of hysterical proportions...\n\n\nFormat : MPEG-4\nFormat profile : Base Media / Version 2\nCodec ID : mp42\nFile size : 800 MiB\nDuration : 1h 33mn\nOverall bit rate : 1 195 Kbps\nEncoded date : UTC 2009-10-01 07:39:56\nTagged date : UTC 2009-10-01 11:50:38\nWriting application : HandBrake 0.9.3 2008112300\n\nVideo\nID : 1\nFormat : AVC\nFormat/Info : Advanced Video Codec\nFormat profile : &lt;a class=&quot;__cf_email__&quot; href=&quot;/cdn-cgi/l/email-protection&quot; data-cfemail=&quot;96dbf7fff8d6daa2b8a6&quot;&gt;[email&amp;#160;protected]&lt;/a&gt;&lt;script cf-hash='f9e31' type=&quot;text/javascript&quot;&gt;\n/* &lt;![CDATA[ */!function(){try{var t=&quot;currentScript&quot;in document?document.currentScript:function(){for(var t=document.getElementsByTagName(&quot;script&quot;),e=t.length;e--;)if(t[e].getAttribute(&quot;cf-hash&quot;))return t[e]}();if(t&amp;&amp;t.previousSibling){var e,r,n,i,c=t.previousSibling,a=c.getAttribute(&quot;data-cfemail&quot;);if(a){for(e=&quot;&quot;,r=parseInt(a.substr(0,2),16),n=2;a.length-n;n+=2)i=parseInt(a.substr(n,2),16)^r,e+=String.fromCharCode(i);e=document.createTextNode(e),c.parentNode.replaceChild(e,c)}}}catch(u){}}();/* ]]&gt; */&lt;/script&gt;\nFormat settings, CABAC : Yes\nFormat settings, ReFrames : 3 frames\nCodec ID : avc1\nCodec ID/Info : Advanced Video Coding\nDuration : 1h 33mn\nBit rate mode : Variable\nBit rate : 1 031 Kbps\nWidth : 714 pixels\nHeight : 526 pixels\nDisplay aspect ratio : 1.931\nOriginal display aspect ratio : 1.932\nFrame rate mode : Variable\nFrame rate : 25.000 fps\nMinimum frame rate : 12.500 fps\nMaximum frame rate : 25.000 fps\nResolution : 24 bits\nColorimetry : 4:2:0\nScan type : Progressive\nBits/(Pixel*Frame) : 0.110\nStream size : 690 MiB (86%)\nWriting library : x264 core 65\n\n\nAudio\nID : 2\nFormat : AAC\nFormat/Info : Advanced Audio Codec\nFormat version : Version 4\nFormat profile : LC\nFormat settings, SBR : No\nCodec ID : 40\nDuration : 1h 33mn\nBit rate mode : Variable\nBit rate : 160 Kbps\nMaximum bit rate : 215 Kbps\nChannel(s) : 2 channels\nChannel positions : L R\nSampling rate : 48.0 KHz\nResolution : 16 bits\nStream size : 107 MiB (13%)\nLanguage : English\nEncoded date : UTC 2009-10-01 07:39:56\nTagged date : UTC 2009-10-01 11:50:32 ","torrent":{"xt":"urn:btih:682b5e76b99267f0e7afb68ff3b19d081df6c3bc","amp;dn":"MOUSE+HUNT-1997-IN+H.264+BY+WINKER","amp;tr":["udp%3A%2F%2Ftracker.openbittorrent.com%3A80","udp%3A%2F%2Fopen.demonii.com%3A1337","udp%3A%2F%2Ftracker.coppersurfer.tk%3A6969","udp%3A%2F%2Fexodus.desync.com%3A6969"],"infoHash":"682b5e76b99267f0e7afb68ff3b19d081df6c3bc","infoHashBuffer":{"type":"Buffer","data":[104,43,94,118,185,146,103,240,231,175,182,143,243,177,157,8,29,246,195,188]},"announce":[],"urlList":[]}}